<svg width="13" height="13" viewBox="0 0 13 13" fill="none" xmlns="http://www.w3.org/2000/svg">
<path d="M9.25 0.5H3.41667C1.80584 0.5 0.5 1.80584 0.5 3.41667V9.25C0.5 10.8608 1.80584 12.1667 3.41667 12.1667H9.25C10.8608 12.1667 12.1667 10.8608 12.1667 9.25V3.41667C12.1667 1.80584 10.8608 0.5 9.25 0.5Z" stroke="#212121" stroke-linecap="round" stroke-linejoin="round"/>
<path d="M8.6674 5.96666C8.73939 6.45214 8.65647 6.94795 8.43043 7.38359C8.20439 7.81922 7.84674 8.17248 7.40835 8.39314C6.96996 8.61379 6.47316 8.69059 5.98861 8.61262C5.50406 8.53465 5.05643 8.30588 4.70939 7.95884C4.36235 7.6118 4.13358 7.16417 4.05561 6.67962C3.97764 6.19507 4.05444 5.69827 4.27509 5.25988C4.49574 4.82149 4.84901 4.46384 5.28464 4.2378C5.72027 4.01176 6.21609 3.92884 6.70157 4.00083C7.19677 4.07426 7.65523 4.30501 8.00922 4.65901C8.36321 5.013 8.59397 5.47146 8.6674 5.96666Z" stroke="#212121" stroke-linecap="round" stroke-linejoin="round"/>
<path d="M9.54257 3.125H9.5483" stroke="#212121" stroke-linecap="round" stroke-linejoin="round"/>
</svg>
