<svg width="20" height="16" viewBox="0 0 20 16" fill="none" xmlns="http://www.w3.org/2000/svg">
<path d="M0 16V11.7895C0 10.5107 0.216741 9.15399 0.650224 7.7193C1.09865 6.26901 1.74141 4.87329 2.57848 3.53217C3.43049 2.17544 4.45441 0.99805 5.65022 0L8.52018 2.43275C7.57848 3.83626 6.75635 5.30214 6.05381 6.83041C5.36622 8.34308 5.02242 9.96491 5.02242 11.6959V16H0ZM11.4798 16V11.7895C11.4798 10.5107 11.6966 9.15399 12.13 7.7193C12.5785 6.26901 13.2212 4.87329 14.0583 3.53217C14.9103 2.17544 15.9342 0.99805 17.13 0L20 2.43275C19.0583 3.83626 18.2362 5.30214 17.5336 6.83041C16.846 8.34308 16.5022 9.96491 16.5022 11.6959V16H11.4798Z" fill="#F28B63"/>
</svg>
