<svg width="164" height="30" viewBox="0 0 164 30" fill="none" xmlns="http://www.w3.org/2000/svg">
<path fill-rule="evenodd" clip-rule="evenodd" d="M15.1604 15.7781C14.7489 23.6431 8.13417 29.9085 0 30V0C8.13417 0.0915699 14.7489 6.35689 15.1604 14.2219C15.5665 6.46058 22.0134 0.257038 30 0.00686193V29.9933C22.0134 29.7431 15.5665 23.5395 15.1604 15.7781Z" fill="#F28B63"/>
<path d="M53.6364 24H47.7216V6.54545H53.7557C55.4886 6.54545 56.9773 6.89489 58.2216 7.59375C59.4716 8.28693 60.4318 9.28409 61.1023 10.5852C61.7727 11.8864 62.108 13.4432 62.108 15.2557C62.108 17.0739 61.7699 18.6364 61.0938 19.9432C60.4233 21.25 59.4545 22.2528 58.1875 22.9517C56.9261 23.6506 55.4091 24 53.6364 24ZM50.8835 21.2642H53.483C54.6989 21.2642 55.7131 21.0426 56.5256 20.5994C57.3381 20.1506 57.9489 19.483 58.358 18.5966C58.767 17.7045 58.9716 16.5909 58.9716 15.2557C58.9716 13.9205 58.767 12.8125 58.358 11.9318C57.9489 11.0455 57.3438 10.3835 56.5426 9.94602C55.7472 9.50284 54.7585 9.28125 53.5767 9.28125H50.8835V21.2642ZM63.7759 24V10.9091H66.7673V13.0909H66.9037C67.1423 12.3352 67.5514 11.7528 68.131 11.3438C68.7162 10.929 69.3838 10.7216 70.1338 10.7216C70.3043 10.7216 70.4946 10.7301 70.7048 10.7472C70.9207 10.7585 71.0997 10.7784 71.2418 10.8068V13.6449C71.1111 13.5994 70.9037 13.5597 70.6196 13.5256C70.3412 13.4858 70.0713 13.4659 69.8099 13.4659C69.2474 13.4659 68.7418 13.5881 68.2929 13.8324C67.8497 14.071 67.5003 14.4034 67.2446 14.8295C66.9889 15.2557 66.8611 15.7472 66.8611 16.304V24H63.7759ZM72.492 24.1875C71.975 24.1875 71.5318 24.0057 71.1625 23.642C70.7932 23.2784 70.6114 22.8352 70.617 22.3125C70.6114 21.8011 70.7932 21.3636 71.1625 21C71.5318 20.6364 71.975 20.4545 72.492 20.4545C72.992 20.4545 73.4267 20.6364 73.796 21C74.171 21.3636 74.3614 21.8011 74.367 22.3125C74.3614 22.6591 74.2705 22.9744 74.0943 23.2585C73.9239 23.5426 73.6966 23.7699 73.4125 23.9403C73.1341 24.1051 72.8273 24.1875 72.492 24.1875ZM80.7028 24V6.54545H83.8648V21.3494H91.5523V24H80.7028ZM96.7273 24.2642C95.8977 24.2642 95.1506 24.1165 94.4858 23.821C93.8267 23.5199 93.304 23.0767 92.9176 22.4915C92.5369 21.9062 92.3466 21.1847 92.3466 20.3267C92.3466 19.5881 92.483 18.9773 92.7557 18.4943C93.0284 18.0114 93.4006 17.625 93.8722 17.3352C94.3438 17.0455 94.875 16.8267 95.4659 16.679C96.0625 16.5256 96.679 16.4148 97.3153 16.3466C98.0824 16.267 98.7045 16.196 99.1818 16.1335C99.6591 16.0653 100.006 15.9631 100.222 15.8267C100.443 15.6847 100.554 15.4659 100.554 15.1705V15.1193C100.554 14.4773 100.364 13.9801 99.983 13.6278C99.6023 13.2756 99.054 13.0994 98.3381 13.0994C97.5824 13.0994 96.983 13.2642 96.5398 13.5938C96.1023 13.9233 95.8068 14.3125 95.6534 14.7614L92.7727 14.3523C93 13.5568 93.375 12.892 93.8977 12.358C94.4205 11.8182 95.0597 11.4148 95.8153 11.1477C96.571 10.875 97.4063 10.7386 98.321 10.7386C98.9517 10.7386 99.5795 10.8125 100.205 10.9602C100.83 11.108 101.401 11.3523 101.918 11.6932C102.435 12.0284 102.849 12.4858 103.162 13.0653C103.48 13.6449 103.639 14.3693 103.639 15.2386V24H100.673V22.2017H100.571C100.384 22.5653 100.119 22.9062 99.7784 23.2244C99.4432 23.5369 99.0199 23.7898 98.5085 23.983C98.0028 24.1705 97.4091 24.2642 96.7273 24.2642ZM97.5284 21.9972C98.1477 21.9972 98.6847 21.875 99.1392 21.6307C99.5938 21.3807 99.9432 21.0511 100.188 20.642C100.438 20.233 100.562 19.7869 100.562 19.304V17.7614C100.466 17.8409 100.301 17.9148 100.068 17.983C99.8409 18.0511 99.5852 18.1108 99.3011 18.1619C99.017 18.2131 98.7358 18.2585 98.4574 18.2983C98.179 18.3381 97.9375 18.3722 97.733 18.4006C97.2727 18.4631 96.8608 18.5653 96.4972 18.7074C96.1335 18.8494 95.8466 19.0483 95.6364 19.304C95.4261 19.554 95.321 19.8778 95.321 20.2756C95.321 20.8438 95.5284 21.2727 95.9432 21.5625C96.358 21.8523 96.8864 21.9972 97.5284 21.9972ZM105.371 24V22.0398L112.121 13.5767V13.4659H105.593V10.9091H115.897V13.0142L109.47 21.3324V21.4432H116.118V24H105.371ZM121.585 24.2642C120.756 24.2642 120.008 24.1165 119.344 23.821C118.685 23.5199 118.162 23.0767 117.775 22.4915C117.395 21.9062 117.204 21.1847 117.204 20.3267C117.204 19.5881 117.341 18.9773 117.613 18.4943C117.886 18.0114 118.258 17.625 118.73 17.3352C119.202 17.0455 119.733 16.8267 120.324 16.679C120.92 16.5256 121.537 16.4148 122.173 16.3466C122.94 16.267 123.562 16.196 124.04 16.1335C124.517 16.0653 124.863 15.9631 125.079 15.8267C125.301 15.6847 125.412 15.4659 125.412 15.1705V15.1193C125.412 14.4773 125.221 13.9801 124.841 13.6278C124.46 13.2756 123.912 13.0994 123.196 13.0994C122.44 13.0994 121.841 13.2642 121.398 13.5938C120.96 13.9233 120.665 14.3125 120.511 14.7614L117.631 14.3523C117.858 13.5568 118.233 12.892 118.756 12.358C119.278 11.8182 119.917 11.4148 120.673 11.1477C121.429 10.875 122.264 10.7386 123.179 10.7386C123.81 10.7386 124.437 10.8125 125.062 10.9602C125.687 11.108 126.258 11.3523 126.775 11.6932C127.292 12.0284 127.707 12.4858 128.02 13.0653C128.338 13.6449 128.497 14.3693 128.497 15.2386V24H125.531V22.2017H125.429C125.241 22.5653 124.977 22.9062 124.636 23.2244C124.301 23.5369 123.878 23.7898 123.366 23.983C122.861 24.1705 122.267 24.2642 121.585 24.2642ZM122.386 21.9972C123.006 21.9972 123.542 21.875 123.997 21.6307C124.452 21.3807 124.801 21.0511 125.045 20.642C125.295 20.233 125.42 19.7869 125.42 19.304V17.7614C125.324 17.8409 125.159 17.9148 124.926 17.983C124.699 18.0511 124.443 18.1108 124.159 18.1619C123.875 18.2131 123.594 18.2585 123.315 18.2983C123.037 18.3381 122.795 18.3722 122.591 18.4006C122.131 18.4631 121.719 18.5653 121.355 18.7074C120.991 18.8494 120.704 19.0483 120.494 19.304C120.284 19.554 120.179 19.8778 120.179 20.2756C120.179 20.8438 120.386 21.2727 120.801 21.5625C121.216 21.8523 121.744 21.9972 122.386 21.9972ZM130.399 24V10.9091H133.391V13.0909H133.527C133.766 12.3352 134.175 11.7528 134.754 11.3438C135.34 10.929 136.007 10.7216 136.757 10.7216C136.928 10.7216 137.118 10.7301 137.328 10.7472C137.544 10.7585 137.723 10.7784 137.865 10.8068V13.6449C137.735 13.5994 137.527 13.5597 137.243 13.5256C136.965 13.4858 136.695 13.4659 136.433 13.4659C135.871 13.4659 135.365 13.5881 134.916 13.8324C134.473 14.071 134.124 14.4034 133.868 14.8295C133.612 15.2557 133.485 15.7472 133.485 16.304V24H130.399ZM143.971 24.2557C142.659 24.2557 141.525 23.983 140.571 23.4375C139.622 22.8864 138.892 22.108 138.38 21.1023C137.869 20.0909 137.613 18.9006 137.613 17.5312C137.613 16.1847 137.869 15.0028 138.38 13.9858C138.897 12.9631 139.619 12.1676 140.545 11.5994C141.471 11.0256 142.559 10.7386 143.809 10.7386C144.616 10.7386 145.378 10.8693 146.093 11.1307C146.815 11.3864 147.451 11.7841 148.003 12.3239C148.559 12.8636 148.997 13.5511 149.315 14.3864C149.633 15.2159 149.792 16.2045 149.792 17.3523V18.2983H139.062V16.2188H146.835C146.829 15.6278 146.701 15.1023 146.451 14.642C146.201 14.1761 145.852 13.8097 145.403 13.5426C144.96 13.2756 144.443 13.142 143.852 13.142C143.221 13.142 142.667 13.2955 142.19 13.6023C141.713 13.9034 141.341 14.3011 141.074 14.7955C140.812 15.2841 140.679 15.821 140.673 16.4062V18.2216C140.673 18.983 140.812 19.6364 141.091 20.1818C141.369 20.7216 141.758 21.1364 142.258 21.4261C142.758 21.7102 143.343 21.8523 144.014 21.8523C144.463 21.8523 144.869 21.7898 145.233 21.6648C145.596 21.5341 145.912 21.3438 146.179 21.0938C146.446 20.8438 146.647 20.5341 146.784 20.1648L149.664 20.4886C149.483 21.25 149.136 21.9148 148.625 22.483C148.119 23.0455 147.471 23.483 146.682 23.7955C145.892 24.1023 144.988 24.2557 143.971 24.2557ZM162.521 10.9091L157.859 24H154.45L149.788 10.9091H153.077L156.086 20.6335H156.222L159.239 10.9091H162.521Z" fill="#212121"/>
</svg>
